<svg width="182" height="58" viewBox="0 0 182 58" fill="none" xmlns="http://www.w3.org/2000/svg">
<path fill-rule="evenodd" clip-rule="evenodd" d="M29.7806 25.5847L24.0374 32.9667C20.8674 37.0407 21.6014 42.922 25.6753 46.0919C29.7501 49.2618 35.6307 48.5272 38.8006 44.4532L50.7395 29.1086C53.9094 25.0346 53.1755 19.1533 49.1007 15.9834C45.0267 12.8134 39.1462 13.5481 35.9763 17.6221L35.6589 18.0295L32.8819 14.4644C37.6165 8.88366 45.9674 7.97807 51.7992 12.5159C57.7873 17.1743 58.8661 25.8189 54.2069 31.8063L42.268 47.1508C37.6097 53.139 28.9658 54.2185 22.9777 49.5594C16.9895 44.9002 15.9108 36.2564 20.5691 30.2682L26.9959 22.0089L29.7806 25.5847Z" fill="#5CECD3"/>
<path d="M67.5615 33.159V13.3804H71.4088V33.159H67.5615ZM70.867 33.159V29.7723H79.4015V33.159H70.867Z" fill="#003D62"/>
<path d="M90.0839 33.6738C88.2416 33.6738 86.6882 33.3216 85.4238 32.6171C84.1594 31.9127 83.1931 30.9283 82.5247 29.6639C81.8745 28.3814 81.5494 26.8822 81.5494 25.1663V13.3804H85.3967V25.383C85.3967 26.3223 85.5773 27.1532 85.9386 27.8757C86.2998 28.5801 86.8236 29.131 87.51 29.5284C88.2145 29.9077 89.0724 30.0974 90.0839 30.0974C91.0774 30.0974 91.9173 29.9077 92.6037 29.5284C93.3081 29.131 93.8319 28.5801 94.1751 27.8757C94.5364 27.1712 94.717 26.3404 94.717 25.383V13.3804H98.5643V25.1663C98.5643 26.8822 98.2392 28.3814 97.589 29.6639C96.9568 30.9283 96.0085 31.9127 94.7441 32.6171C93.4797 33.3216 91.9263 33.6738 90.0839 33.6738Z" fill="#003D62"/>
<path d="M106.918 33.159V16.2253H110.765V33.159H106.918ZM101.201 16.7672V13.3804H116.482V16.7672H101.201Z" fill="#003D62"/>
<path d="M119.553 33.159V13.245H123.401V33.159H119.553ZM131.637 33.159L125.568 24.5431H129.876L136.135 33.159H131.637ZM122.263 26.5481V23.4323H127.302C128.007 23.4323 128.612 23.2878 129.117 22.9988C129.641 22.7098 130.048 22.3034 130.337 21.7796C130.626 21.2557 130.77 20.6597 130.77 19.9914C130.77 19.305 130.626 18.6999 130.337 18.1761C130.048 17.6522 129.641 17.2458 129.117 16.9568C128.612 16.6678 128.007 16.5233 127.302 16.5233H122.263V13.245H126.896C128.485 13.245 129.858 13.4798 131.014 13.9494C132.188 14.419 133.091 15.1325 133.723 16.0898C134.356 17.0471 134.672 18.2483 134.672 19.6933V20.1268C134.672 21.5899 134.347 22.7911 133.696 23.7303C133.064 24.6696 132.17 25.374 131.014 25.8436C129.858 26.3133 128.485 26.5481 126.896 26.5481H122.263Z" fill="#003D62"/>
<path d="M148.082 33.6738C146.294 33.6738 144.74 33.3577 143.422 32.7255C142.121 32.0933 141.038 31.2715 140.171 30.2599C139.322 29.2304 138.68 28.1286 138.247 26.9545C137.832 25.7624 137.624 24.6154 137.624 23.5136V22.9175C137.624 21.7073 137.841 20.5061 138.274 19.314C138.708 18.1038 139.358 17.011 140.225 16.0356C141.11 15.0603 142.203 14.2836 143.503 13.7056C144.804 13.1095 146.33 12.8115 148.082 12.8115C149.816 12.8115 151.333 13.1095 152.634 13.7056C153.934 14.2836 155.018 15.0603 155.885 16.0356C156.77 17.011 157.429 18.1038 157.863 19.314C158.296 20.5061 158.513 21.7073 158.513 22.9175V23.5136C158.513 24.6154 158.296 25.7624 157.863 26.9545C157.448 28.1286 156.806 29.2304 155.939 30.2599C155.09 31.2715 154.007 32.0933 152.688 32.7255C151.388 33.3577 149.852 33.6738 148.082 33.6738ZM148.082 30.0974C149.094 30.0974 149.997 29.9168 150.791 29.5555C151.604 29.1943 152.291 28.6975 152.851 28.0653C153.429 27.4151 153.862 26.6836 154.151 25.8707C154.458 25.0399 154.612 24.1638 154.612 23.2426C154.612 22.2492 154.458 21.337 154.151 20.5061C153.862 19.6753 153.429 18.9528 152.851 18.3386C152.291 17.7245 151.604 17.2458 150.791 16.9026C149.979 16.5595 149.076 16.3879 148.082 16.3879C147.071 16.3879 146.158 16.5595 145.346 16.9026C144.533 17.2458 143.837 17.7245 143.259 18.3386C142.699 18.9528 142.266 19.6753 141.959 20.5061C141.67 21.337 141.525 22.2492 141.525 23.2426C141.525 24.1638 141.67 25.0399 141.959 25.8707C142.266 26.6836 142.699 27.4151 143.259 28.0653C143.837 28.6975 144.533 29.1943 145.346 29.5555C146.158 29.9168 147.071 30.0974 148.082 30.0974Z" fill="#003D62"/>
<path d="M171.525 33.6738C169.736 33.6738 168.183 33.3577 166.865 32.7255C165.564 32.0933 164.48 31.2715 163.613 30.2599C162.764 29.2304 162.123 28.1286 161.69 26.9545C161.274 25.7624 161.066 24.6154 161.066 23.5136V22.9175C161.066 21.7073 161.283 20.5061 161.717 19.314C162.15 18.1038 162.8 17.011 163.667 16.0356C164.553 15.0603 165.645 14.2836 166.946 13.7056C168.246 13.1095 169.773 12.8115 171.525 12.8115C173.259 12.8115 174.776 13.1095 176.076 13.7056C177.377 14.2836 178.461 15.0603 179.328 16.0356C180.213 17.011 180.872 18.1038 181.306 19.314C181.739 20.5061 181.956 21.7073 181.956 22.9175V23.5136C181.956 24.6154 181.739 25.7624 181.306 26.9545C180.89 28.1286 180.249 29.2304 179.382 30.2599C178.533 31.2715 177.449 32.0933 176.131 32.7255C174.83 33.3577 173.295 33.6738 171.525 33.6738ZM171.525 30.0974C172.536 30.0974 173.439 29.9168 174.234 29.5555C175.047 29.1943 175.733 28.6975 176.293 28.0653C176.871 27.4151 177.305 26.6836 177.594 25.8707C177.901 25.0399 178.054 24.1638 178.054 23.2426C178.054 22.2492 177.901 21.337 177.594 20.5061C177.305 19.6753 176.871 18.9528 176.293 18.3386C175.733 17.7245 175.047 17.2458 174.234 16.9026C173.421 16.5595 172.518 16.3879 171.525 16.3879C170.513 16.3879 169.601 16.5595 168.788 16.9026C167.975 17.2458 167.28 17.7245 166.702 18.3386C166.142 18.9528 165.709 19.6753 165.401 20.5061C165.112 21.337 164.968 22.2492 164.968 23.2426C164.968 24.1638 165.112 25.0399 165.401 25.8707C165.709 26.6836 166.142 27.4151 166.702 28.0653C167.28 28.6975 167.975 29.1943 168.788 29.5555C169.601 29.9168 170.513 30.0974 171.525 30.0974Z" fill="#003D62"/>
<path d="M65.7849 45.1074V39.6414H66.4468V42.0755H69.3614V39.6414H70.0233V45.1074H69.3614V42.6626H66.4468V45.1074H65.7849Z" fill="#003D62"/>
<path d="M71.3484 45.1074V39.6414H74.6472V40.2285H72.0103V42.0755H74.4764V42.6626H72.0103V44.5202H74.6899V45.1074H71.3484Z" fill="#003D62"/>
<path d="M76.0645 45.1074H75.3705L77.3776 39.6414H78.0608L80.0679 45.1074H79.374L77.7406 40.5061H77.6979L76.0645 45.1074ZM76.3207 42.9722H79.1178V43.5594H76.3207V42.9722Z" fill="#003D62"/>
<path d="M80.9193 45.1074V39.6414H81.5812V44.5202H84.1221V45.1074H80.9193Z" fill="#003D62"/>
<path d="M84.1214 40.2285V39.6414H88.2209V40.2285H86.5021V45.1074H85.8402V40.2285H84.1214Z" fill="#003D62"/>
<path d="M89.2425 45.1074V39.6414H89.9044V42.0755H92.8189V39.6414H93.4808V45.1074H92.8189V42.6626H89.9044V45.1074H89.2425Z" fill="#003D62"/>
<path d="M97.144 45.1074H96.45L98.4571 39.6414H99.1403L101.147 45.1074H100.453L98.8201 40.5061H98.7774L97.144 45.1074ZM97.4002 42.9722H100.197V43.5594H97.4002V42.9722Z" fill="#003D62"/>
<path d="M106.333 39.6414V45.1074H105.693L102.714 40.8157H102.661V45.1074H101.999V39.6414H102.639L105.629 43.9437H105.682V39.6414H106.333Z" fill="#003D62"/>
<path d="M109.344 45.1074H107.658V39.6414H109.419C109.949 39.6414 110.403 39.7508 110.78 39.9697C111.158 40.1867 111.447 40.499 111.648 40.9065C111.849 41.3121 111.949 41.7979 111.949 42.3637C111.949 42.9331 111.848 43.4233 111.645 43.8343C111.442 44.2436 111.147 44.5585 110.759 44.7791C110.371 44.998 109.9 45.1074 109.344 45.1074ZM108.32 44.5202H109.302C109.754 44.5202 110.128 44.4331 110.425 44.2587C110.723 44.0843 110.944 43.8361 111.09 43.514C111.236 43.192 111.309 42.8085 111.309 42.3637C111.309 41.9224 111.237 41.5426 111.093 41.2241C110.949 40.9038 110.733 40.6582 110.447 40.4874C110.16 40.3148 109.804 40.2285 109.376 40.2285H108.32V44.5202Z" fill="#003D62"/>
<path d="M116.166 45.1074L114.672 39.6414H115.344L116.487 44.0932H116.54L117.704 39.6414H118.451L119.615 44.0932H119.668L120.81 39.6414H121.483L119.988 45.1074H119.305L118.099 40.7517H118.056L116.85 45.1074H116.166Z" fill="#003D62"/>
<path d="M122.308 45.1074V39.6414H125.606V40.2285H122.97V42.0755H125.436V42.6626H122.97V44.5202H125.649V45.1074H122.308Z" fill="#003D62"/>
<path d="M126.799 45.1074V39.6414H127.461V44.5202H130.002V45.1074H126.799Z" fill="#003D62"/>
<path d="M131.027 45.1074V39.6414H131.689V44.5202H134.23V45.1074H131.027Z" fill="#003D62"/>
<path d="M139.589 39.6414V45.1074H138.949L135.97 40.8157H135.917V45.1074H135.255V39.6414H135.895L138.885 43.9437H138.938V39.6414H139.589Z" fill="#003D62"/>
<path d="M140.914 45.1074V39.6414H144.212V40.2285H141.576V42.0755H144.042V42.6626H141.576V44.5202H144.255V45.1074H140.914Z" fill="#003D62"/>
<path d="M148.395 41.0079C148.363 40.7374 148.233 40.5275 148.005 40.378C147.777 40.2285 147.498 40.1538 147.167 40.1538C146.925 40.1538 146.713 40.193 146.532 40.2712C146.352 40.3495 146.212 40.4572 146.11 40.5942C146.01 40.7312 145.961 40.8869 145.961 41.0613C145.961 41.2072 145.995 41.3326 146.065 41.4376C146.136 41.5408 146.227 41.6271 146.337 41.6965C146.447 41.7641 146.563 41.8201 146.684 41.8646C146.805 41.9073 146.916 41.942 147.018 41.9687L147.573 42.1182C147.715 42.1555 147.873 42.2071 148.048 42.273C148.224 42.3388 148.392 42.4287 148.552 42.5425C148.714 42.6546 148.848 42.7988 148.953 42.9749C149.058 43.1511 149.11 43.3672 149.11 43.6235C149.11 43.9188 149.033 44.1857 148.878 44.4242C148.725 44.6626 148.501 44.8521 148.205 44.9926C147.912 45.1332 147.555 45.2035 147.135 45.2035C146.744 45.2035 146.405 45.1403 146.118 45.014C145.833 44.8877 145.609 44.7115 145.446 44.4855C145.284 44.2596 145.192 43.9971 145.171 43.6982H145.854C145.872 43.9046 145.941 44.0754 146.062 44.2106C146.185 44.3441 146.34 44.4437 146.526 44.5096C146.715 44.5736 146.918 44.6056 147.135 44.6056C147.388 44.6056 147.615 44.5647 147.816 44.4829C148.017 44.3992 148.176 44.2836 148.293 44.1359C148.411 43.9864 148.469 43.8121 148.469 43.6128C148.469 43.4313 148.419 43.2836 148.317 43.1697C148.216 43.0559 148.082 42.9633 147.917 42.8922C147.752 42.821 147.573 42.7587 147.381 42.7053L146.708 42.5132C146.281 42.3904 145.943 42.2151 145.694 41.9874C145.445 41.7596 145.32 41.4616 145.32 41.0933C145.32 40.7872 145.403 40.5203 145.568 40.2926C145.736 40.0631 145.96 39.8851 146.241 39.7588C146.524 39.6307 146.84 39.5666 147.188 39.5666C147.541 39.5666 147.854 39.6298 148.128 39.7561C148.402 39.8807 148.619 40.0515 148.779 40.2686C148.941 40.4857 149.026 40.7321 149.035 41.0079H148.395Z" fill="#003D62"/>
<path d="M153.188 41.0079C153.156 40.7374 153.026 40.5275 152.798 40.378C152.57 40.2285 152.291 40.1538 151.96 40.1538C151.718 40.1538 151.506 40.193 151.325 40.2712C151.145 40.3495 151.004 40.4572 150.903 40.5942C150.803 40.7312 150.753 40.8869 150.753 41.0613C150.753 41.2072 150.788 41.3326 150.858 41.4376C150.929 41.5408 151.019 41.6271 151.13 41.6965C151.24 41.7641 151.356 41.8201 151.477 41.8646C151.598 41.9073 151.709 41.942 151.81 41.9687L152.366 42.1182C152.508 42.1555 152.666 42.2071 152.841 42.273C153.017 42.3388 153.185 42.4287 153.345 42.5425C153.507 42.6546 153.64 42.7988 153.745 42.9749C153.85 43.1511 153.903 43.3672 153.903 43.6235C153.903 43.9188 153.825 44.1857 153.671 44.4242C153.518 44.6626 153.293 44.8521 152.998 44.9926C152.704 45.1332 152.348 45.2035 151.928 45.2035C151.536 45.2035 151.197 45.1403 150.911 45.014C150.626 44.8877 150.402 44.7115 150.238 44.4855C150.076 44.2596 149.985 43.9971 149.963 43.6982H150.647C150.664 43.9046 150.734 44.0754 150.855 44.2106C150.978 44.3441 151.132 44.4437 151.319 44.5096C151.508 44.5736 151.711 44.6056 151.928 44.6056C152.18 44.6056 152.407 44.5647 152.608 44.4829C152.809 44.3992 152.969 44.2836 153.086 44.1359C153.204 43.9864 153.262 43.8121 153.262 43.6128C153.262 43.4313 153.212 43.2836 153.11 43.1697C153.009 43.0559 152.875 42.9633 152.71 42.8922C152.544 42.821 152.366 42.7587 152.173 42.7053L151.501 42.5132C151.074 42.3904 150.736 42.2151 150.487 41.9874C150.237 41.7596 150.113 41.4616 150.113 41.0933C150.113 40.7872 150.196 40.5203 150.361 40.2926C150.528 40.0631 150.753 39.8851 151.034 39.7588C151.317 39.6307 151.632 39.5666 151.981 39.5666C152.333 39.5666 152.647 39.6298 152.921 39.7561C153.195 39.8807 153.412 40.0515 153.572 40.2686C153.734 40.4857 153.819 40.7321 153.828 41.0079H153.188Z" fill="#003D62"/>
<path d="M32.5783 9.62006C35.2349 9.62006 37.3884 7.46654 37.3884 4.81003C37.3884 2.15353 35.2349 0 32.5783 0C29.9218 0 27.7683 2.15353 27.7683 4.81003C27.7683 7.46654 29.9218 9.62006 32.5783 9.62006Z" fill="#003D62"/>
<path fill-rule="evenodd" clip-rule="evenodd" d="M10.849 12.5151C4.86153 17.1736 3.78289 25.8181 8.44178 31.8061L20.3805 47.1507C25.0394 53.1387 33.6833 54.2175 39.6707 49.559C45.6592 44.8997 46.7385 36.256 42.0796 30.268L30.1408 14.9233C25.4819 8.93537 16.8375 7.85578 10.849 12.5151ZM13.547 15.9828C17.6213 12.8129 23.5031 13.5473 26.673 17.6215L38.6117 32.9661C41.7816 37.0402 41.047 42.9214 36.9727 46.0913C32.8985 49.2612 27.0182 48.5268 23.8484 44.4526L11.9096 29.108C8.73975 25.0338 9.4728 19.1527 13.547 15.9828Z" fill="#003D62"/>
</svg>
